<svg width="56" height="54" viewBox="0 0 56 54" fill="none" xmlns="http://www.w3.org/2000/svg">
<path d="M55.4928 17.7211L47.1501 45.6283C45.2852 51.8355 38.8074 55.3681 32.7712 53.5009L27.0785 51.6841C22.122 50.1197 18.9321 45.376 18.9321 40.279C20.2571 40.2285 21.5331 39.8248 22.76 39.1688L29.8267 35.2829C34.3906 32.8101 36.1083 27.0067 33.7036 22.3134L27.373 10.1008L27.7165 8.99057C29.5814 2.78335 36.0592 -0.74921 42.0954 1.118L47.7881 2.93475C53.9224 4.85243 57.3576 11.5138 55.4928 17.7211Z" fill="#9E6CFF"/>
<path d="M29.9249 35.2832L22.8581 39.169C21.6313 39.8251 20.3062 40.1783 19.0303 40.2793C19.0303 39.169 19.1775 38.0083 19.521 36.8981L27.5202 10.1011L33.8509 22.3137C36.2065 27.0069 34.4398 32.8104 29.9249 35.2832Z" fill="#FF8389"/>
<path d="M27.4223 10.0996L19.4231 36.8967C19.0796 38.0069 18.9324 39.1676 18.9324 40.2778C15.399 40.4797 11.9147 38.6125 10.1971 35.1808L1.31457 17.9722C-1.09009 13.2789 0.627537 7.47544 5.19148 5.00265L12.2583 1.11683C16.8222 -1.35596 22.4658 0.410317 24.8704 5.10358L27.4223 10.0996Z" fill="#FFCD2E"/>
</svg>
