<svg width="180" height="54" viewBox="0 0 180 54" fill="none" xmlns="http://www.w3.org/2000/svg">
<path d="M55.9781 17.7211L47.6354 45.6283C45.7706 51.8355 39.2927 55.3681 33.2565 53.5009L27.5639 51.6841C22.6073 50.1197 19.4175 45.376 19.4175 40.279C20.7425 40.2285 22.0185 39.8248 23.2453 39.1688L30.312 35.2829C34.876 32.8101 36.5936 27.0067 34.189 22.3134L27.8583 10.1008L28.2019 8.99057C30.0667 2.78335 36.5445 -0.74921 42.5807 1.118L48.2734 2.93475C54.4078 4.85243 57.843 11.5138 55.9781 17.7211Z" fill="#9E6CFF"/>
<path d="M30.4104 35.2832L23.3436 39.169C22.1167 39.8251 20.7917 40.1783 19.5157 40.2793C19.5157 39.169 19.663 38.0083 20.0065 36.8981L28.0057 10.1011L34.3363 22.3137C36.6919 27.0069 34.9252 32.8104 30.4104 35.2832Z" fill="#FF8389"/>
<path d="M27.9077 10.0996L19.9085 36.8967C19.565 38.0069 19.4177 39.1676 19.4177 40.2778C15.8844 40.4797 12.4 38.6125 10.6824 35.1808L1.79992 17.9722C-0.604738 13.2789 1.11289 7.47544 5.67683 5.00265L12.7436 1.11683C17.3075 -1.35596 22.9511 0.410317 25.3558 5.10358L27.9077 10.0996Z" fill="#FFCD2E"/>
<path d="M6.55941 49.4128C6.11774 49.1605 5.82324 48.8072 5.52879 48.353C5.28342 47.8988 5.13623 47.4446 5.13623 46.94C5.13623 46.4353 5.28342 45.9307 5.52879 45.527C5.77417 45.0728 6.11774 44.77 6.55941 44.4672C7.00108 44.2149 7.44272 44.0635 7.93346 44.0635C8.42421 44.0635 8.91498 44.2149 9.30758 44.4672C9.74925 44.7195 10.0437 45.0728 10.3381 45.527C10.5835 45.9812 10.7308 46.4353 10.7308 46.94C10.7308 47.596 10.5344 48.2016 10.1418 48.7063C9.9946 48.9081 9.84737 49.0595 9.70014 49.1605C9.20939 49.5642 8.6205 49.766 7.98253 49.766C7.44271 49.8165 7.00108 49.6651 6.55941 49.4128ZM9.11127 49.0595C9.45479 48.8577 9.74922 48.5549 9.94552 48.2016C10.1418 47.8484 10.24 47.4446 10.24 46.9905C10.24 46.5363 10.1418 46.183 9.94552 45.7793C9.74922 45.426 9.45479 45.1232 9.11127 44.9214C8.76775 44.7195 8.37513 44.6186 7.98253 44.6186C7.58993 44.6186 7.19737 44.7195 6.85385 44.9214C6.51032 45.1232 6.21584 45.426 6.01954 45.7793C5.82324 46.1325 5.7251 46.5363 5.7251 46.9905C5.7251 47.4446 5.82324 47.7979 6.01954 48.2016C6.21584 48.5549 6.51032 48.8577 6.85385 49.0595C7.19737 49.2614 7.58993 49.3623 7.98253 49.3623C8.37513 49.3623 8.76775 49.2614 9.11127 49.0595ZM7.05016 48.2521C7.00108 48.2016 7.00103 48.2016 7.00103 48.1512V45.7793C7.00103 45.7288 7.00108 45.6784 7.05016 45.6784C7.09923 45.6279 7.09921 45.6279 7.14828 45.6279H8.08071C8.37516 45.6279 8.62055 45.6784 8.76777 45.8298C8.96407 45.9812 9.01314 46.183 9.01314 46.4858C9.01314 46.6877 8.96405 46.8391 8.8659 46.9905C8.76775 47.1419 8.66957 47.2428 8.47327 47.2932L8.96402 48.1007C8.96402 48.1512 9.01314 48.1512 9.01314 48.2016C9.01314 48.2521 9.0131 48.3025 8.96402 48.3025C8.91495 48.353 8.91497 48.353 8.8659 48.353H8.76777C8.66962 48.353 8.62053 48.3026 8.57146 48.2016L8.03165 47.3437H7.39366V48.1512C7.39366 48.2016 7.39367 48.2521 7.34459 48.2521C7.29552 48.3026 7.29548 48.3025 7.24641 48.3025H7.14828C7.09921 48.3025 7.05016 48.3026 7.05016 48.2521ZM8.03165 46.8895C8.42425 46.8895 8.57146 46.7381 8.57146 46.4858C8.57146 46.183 8.37517 46.0821 8.03165 46.0821H7.39366V46.94H8.03165V46.8895Z" fill="#9E6CFF"/>
<path d="M85.552 15.3585L80.2519 26.6627C79.8103 27.6215 78.4852 27.6215 78.0436 26.6122L73.087 15.3585C72.9398 15.0557 72.6944 14.9043 72.4 14.9043H67.2471C66.7073 14.9043 66.3147 15.5099 66.5601 16.0145L75.5898 35.8978C75.688 36.0997 75.688 36.352 75.5898 36.5539L71.2712 45.8899C71.0259 46.3946 71.4185 47.0002 71.9583 47.0002H76.8658C77.1602 47.0002 77.4056 46.8488 77.5528 46.546L91.8336 16.0145C92.0789 15.5099 91.6863 14.9043 91.1465 14.9043H86.239C85.9936 14.9043 85.6992 15.1062 85.552 15.3585Z" fill="#9E6CFF"/>
<path d="M104.705 14.9043C99.1593 14.9043 95.4296 17.579 94.0064 21.919C93.8592 22.3731 94.1045 22.8273 94.5462 22.9283L98.7175 24.089C99.1101 24.1899 99.5028 23.988 99.65 23.5843C100.386 21.4648 102.104 20.1527 104.705 20.1527C107.698 20.1527 109.661 21.818 109.661 24.5936C109.661 25.4011 108.925 26.0066 108.14 25.8048L107.453 25.6534C106.128 25.3001 104.754 25.1487 103.331 25.1487C97.6379 25.1487 93.9083 27.8234 93.9083 33.1222C93.9083 37.9164 97.687 40.8434 101.858 40.8434C104.852 40.8434 107.06 39.9855 108.631 38.2697C109.072 37.765 109.858 38.1183 109.858 38.7743V39.5313C109.858 39.9855 110.201 40.3388 110.643 40.3388H115.059C115.501 40.3388 115.845 39.9855 115.845 39.5313V24.9469C115.845 18.4873 112.066 14.9043 104.705 14.9043ZM109.612 31.1036C109.612 33.9801 107.453 35.696 104.459 35.696C101.858 35.696 100.533 34.5353 100.533 32.7185C100.533 30.7504 101.956 29.7411 104.361 29.7411C105.343 29.7411 106.619 29.9934 108.14 30.498L109.612 30.9522V31.1036Z" fill="#9E6CFF"/>
<path d="M171.042 14.9043C168.931 14.9043 167.116 15.6108 165.693 17.1248C164.858 18.0331 163.435 17.9322 162.65 17.0238C161.423 15.6613 159.754 14.9548 157.791 14.9548C155.289 14.9548 153.424 15.9641 152.197 17.8817C151.952 18.2855 151.804 18.6892 151.706 19.1938L151.412 20.8087C151.363 21.0106 151.068 21.0106 151.019 20.8087C150.136 16.4183 147.093 15.0052 143.707 15.0052C141.597 15.0052 139.781 15.7117 138.358 17.2257C137.524 18.1341 136.1 18.0331 135.266 17.1248C134.039 15.7622 132.371 15.0557 130.408 15.0557C128.445 15.0557 126.874 15.6613 125.647 16.9229C125.206 17.3771 124.421 17.0743 124.421 16.4183C124.421 15.9641 124.077 15.6108 123.635 15.6108H118.63C118.188 15.6108 117.845 15.9641 117.845 16.4183V39.6827C117.845 40.1369 118.188 40.4902 118.63 40.4902H123.635C124.077 40.4902 124.421 40.1369 124.421 39.6827V25.3001C124.421 22.3227 125.893 20.6573 128.003 20.6573C130.113 20.6573 131.586 22.1208 131.586 24.7955V39.5313C131.586 39.9855 131.929 40.3388 132.371 40.3388H137.327C137.769 40.3388 138.112 39.9855 138.112 39.5313V25.0478C138.112 22.1713 139.487 20.4555 141.695 20.4555C143.756 20.4555 145.277 22.0199 145.277 24.745V39.4809C145.277 39.935 145.621 40.2883 146.063 40.2883H151.068C151.51 40.2883 151.853 39.935 151.853 39.4809V25.3001C151.853 22.3227 153.326 20.6573 155.436 20.6573C157.546 20.6573 159.018 22.1208 159.018 24.7955V39.5313C159.018 39.9855 159.362 40.3388 159.804 40.3388H164.76C165.202 40.3388 165.545 39.9855 165.545 39.5313V25.0478C165.545 22.1713 166.919 20.4555 169.128 20.4555C171.238 20.4555 172.71 22.0199 172.71 24.745V39.4809C172.71 39.935 173.054 40.2883 173.495 40.2883H178.501C178.943 40.2883 179.286 39.935 179.286 39.4809V23.4834C179.09 18.0331 175.998 14.9043 171.042 14.9043Z" fill="#9E6CFF"/>
</svg>
